<mxfile host="app.diagrams.net" modified="2023-01-09T01:52:08.727Z" agent="5.0 (Windows NT 10.0; Win64; x64) AppleWebKit/537.36 (KHTML, like Gecko) Chrome/95.0.4638.69 Safari/537.36" etag="2LbTZKLQToc-rXvLZTN2" version="20.7.4" type="github">
  <diagram id="FkngNSFY6QySPiZWY68I" name="第 1 页">
    <mxGraphModel dx="1353" dy="728" grid="1" gridSize="10" guides="1" tooltips="1" connect="1" arrows="1" fold="1" page="1" pageScale="1" pageWidth="827" pageHeight="1169" math="0" shadow="0">
      <root>
        <mxCell id="0" />
        <mxCell id="1" parent="0" />
        <mxCell id="6fFxtqcf5MelauamtKhC-6" value="" style="html=1;shadow=0;dashed=0;align=center;verticalAlign=middle;shape=mxgraph.arrows2.stylisedArrow;dy=0.6;dx=40;notch=15;feather=0.4;rounded=0;strokeWidth=1;fontSize=27;strokeColor=none;fillColor=#fff2cc;" parent="1" vertex="1">
          <mxGeometry x="360.87" y="250" width="100" height="60" as="geometry" />
        </mxCell>
        <mxCell id="6fFxtqcf5MelauamtKhC-7" value="" style="shape=image;verticalLabelPosition=bottom;labelBackgroundColor=default;verticalAlign=top;aspect=fixed;imageAspect=0;image=data:image/png,iVBORw0KGgoAAAANSUhEUgAAAPMAAADPCAMAAAAXkBfbAAAAn1BMVEX///8bHyMWExIAAAARDQzOzc0qKCfa2tmSkZHz8/N5eHgNCQfU1NQGAAD29vaJiIi2tbViYGCvrq4QFRoACRAAAAoVGR6pqKhFQ0O+vr7m5uY3NTScnJwRFhsFDRMAAAdQT08gJChBPz9vcXNeYWMsMDODhYY2OTwfHBubmpnQz88+PDvh4eJ9f4BWWFpJS05kZmg+QUUoLC8jICBLSUjVShqfAAANTElEQVR4nO1daXeqOhQtBAcc0ApiQUUtdagi2vb9/9/2QIWEcJjTEu9if3lvFUyyyckZk9yXlwYNGjRo0KBBgwYNGvwrUGTTcRzTVJS6R/IHkFuzkX3ZWCt0w0rfXuzu5Fj3sH4NnVlPQGiqqbqAoeuW5n2A/c4w6x4fayit87c1tYQk6N7Dr0Wn7mEyxHG3tyw9kXDAW9MvC6fusTKBPHZVLZPwg/Z0Yz//4pYX+5Waj/Ad1vTDqHvQlSAvtqucU4yhIveJWY/3qDBjH0vkPqk6G1zKMb7P9Vmue/wlsFstyzL2oQlPJ+CDL60KY8HX4b3nmuqZUEhZJ0z1V6tuHvkh96alVzKJpTWrm0pemJcpC8Y+0KhuMvngfCf71cVJfzxDuNkqb6EgaBf+NZmBWDL2YH3xHmUaKtNZ9qHu+SZtCMwpe6S/eBbvwfcvUPbE+1I3sWSYWwaeCISpXTe1JCgXhkYqCrSom1wC7KoudhppPiOOGWWldGu5Qil5vyTo1gppApVO0nUeI+oONcv6l6zInZm9QYUWuYq254kjK8o2Slpd100wDsWlqGnd+wN54mq5WVvah/EwTF3qGwbtcYTPFTV8NAifHa/5WKs6kfVs0atCHUD91ohO3DCTj1uXMLrUVW3qFzM8PP4veKC5ZLws76km1a8/5pSFj9isfERfmAiWp500S/i6didGqzXwcGwZk6795Um0pQvWZkw1ScvGiq9oehyLmDXaoso22o4MsE7RMXZ7ZNNB4y6m8ldc+aC0HHqu0zj2UmokHH84oTWEoO3YjbgyFnFvZFrZiQCi0hU/5SxlE9dg08r5u1ZsngXrzGK4TDAD8l+/wllQuZnoLRBB/ops87OiwXTQdFK1WUh69C0nOZOYIb3NSGVX8QyFJ5zYaAfM+i3XVdt1oXrXko+UCR0MPIAqJqbNb7BZi4d9CMoXnAOrGuUnJI25MFcDuFBjVS1AKDEX/gZ9z2bYlQCLtv5d2Tc24w6tD7V+4VZAVSNYDPJXBihBHOQOHFCyNSbJ2R4k3Xr9YfQYVDXfTFwHGcyuWLVHlKDnoDEqG4O6oronXxXwcmYUCpiQEMWyEX8NE4ov1Cur5ulkKtvWS2IALTl2TvEEVN2sWi+JeCLMg8UsygV9+apebVVAWkZnWC+GNCSquYxjA4NSGVZO14CKrLteB6lti+EGJ8gUTmuOoaGgiqUx+QTWTt3GCooDWM4DlCBi5fGUBF0xZc4ZMlY1h9AylMz47XlmqSNLwASy+Uw5AxWSuh0xcwPMM0sdA9l/uuT5xwDn+bdtVe2cgXlmqWOuUJBR73qWoY1/LNcbZP+tHrv2ywCyVSz9bShss2ouWoHJbZVZUQlOGnyyar4cLhBnxCx7YwD12Nr9bUjHMEzHggkxFN+28acYQYNiZ0xgMap5o9gYEj59w2hBg8tZQDUne49g5WZVueB+B+Rte5+UTeOl4YAVU1ZVYihLIixdNo2XB7jiBIuJ5m6Bol1/wQpKiHlajMlcgJs2GOzOqYr4bj1mA0uoumu1b6Oht6o/oG8qtwyWSLgouivwghasysEPvGpq97Z9xLff3oEqeojdhHbZqMdqgJWrB62SizhLoKxvay8/eyE0vOz8Gakw0/QhHtxozcHzHUnCLejTUclqmrJLPF2r1W6pfByTT/+u9qXKaYPkg/Is8xFVQGpuVdMswmHU0bmwNXVslHzLx7R2J+yOGeGWXLuLkbsipF0TzoXmemALqUfvODlOp4RuySPj2bGJk3+6JrizfEV4pTNz1VTGfGgwH2E2Q18/VtskkvdeTnV3ZzipK1F2xue1Ps24u0bj5lyZHKocy30s3yN14H1pIW3/0euCilzu9tythqzMy3pq3z5DYIele/Mo3Azi2lxXk3YIzFC+axBQ/Xs9Q5jE8kWPJQd4FcmF43Ouo9MWR9P88rIgDCp6BAFXWhvp34kuClgDik8zN6dufChfxFp8SHCsfpdWr0zY7B/9PQcRFYkWMWb9scPVoHhsUqYJPtQRQYqY1ARyRWrBko4c0E9NDCrwBnUSVs2p/Dgi4VUQ4443xJpOv3AD3KsdoczhfR1k9ipMAZpX63aoW1c165Ia7GctaJ3LG3h2hNuthfw6C3ejqVt7luEow+l7jLo3/yXgglOzxS0pWAQiKNe9aTsBpHFaFo1/0u/g4vfynQH2INWi1ZtUztaFNzOFMcbSPS3oQIDV9UBoeDkNC2KGtW/Bm1hTOOsbbiJIEAssotN9ESciWYfpAgcZ7VQQpHW07eLhKoPUeYfPafmt6LxTjsaQuobQ9+Xj+uHuLZS+JSKJs8q5YN9hRC+71Jeqqi69P1mp5itBtq09V/FjIlrwpaZlOK9cPtLZ2XBc8ARSYc766syvXaYhn4F/NUArylkV+LiwIS/G8cx8OmfgdqHLM2gvEqZL39tbjPMSlS3w1YmJHg2Jp6nTRnFGX882yXfII8vKz5lUe9MnW8kknJ5m5eSMcwa6tuk+i4UC0bH1QIWv0jk/ZFuffo94jqJywdltb5U3Pf3w+31bijrdL56esQ95fBFW01VGtfyKptPNh/GEyjoBzmSWGR0Zi/E/McUNGjRo0KBBgz+A7HQ6Hcf8d7yldBxn9ql9ECVJEg8/7bfrZ+s5UpKlYS7ehwj1fcI+a0nqI4QO61mZoG8QghIXJ3yQ3wnFjTGOP+XuAfXFGKQhahNutGKaefodoBDRorIyDx/M847MwY2xvbXEmCMpzvgG4tTFeO19Aju77txC4Y+joZYyD76r1M47tA5ujOn2109ojoOegjWtXNFQEiWUffQkhXPwZWvnPEqcZFHszwNp3j06lzL3ZD4B5xkSk4GCPQ+d8MP0TxkN8s95kEZZDLVQF7+GQqVrhiBb5J6z8h5by9LNYD06CvJ6NsE52NU0OLQfEMmNTtxzpiTb01FIOhxu//WttRhY2B7BOTBfLSQ9ELmBgHfO8pzUX300742PHcdxOgNjYZ9EFB75Jb5NePT+iMfzTJwj04xO1AaRDk7smWIw3mH4HZ6U85pYzSj1GqFZaKtCL/w5OZNKG2Xkpxf+Au8jETujz8mZtECvmd33Tu11lzBLz8l5PcScc4Q6ihwJlJ6Ss9mWqrRYB2fZHBhGq1M+qdEiRDvLiz4aAcJ4kiA3uj9qUX9O5ywfAxAVTTP8o0lxPr8oxvlteIsrpcgiK4JJ2KD0k/EqEcfevrcyWNhYSsTgmVmEcxe3if24V/zHKOehPZv7avTegEe93AnaER5d1v5pSsZGt48t0rjZsUTOLxTnEbQ2XkMVQ3EWh9GQV0JvZQScaD/rAqEoZ/l9KEKgOPfdBYnPdiXO8d5yZ1sInMIPl3kLGsX5Dc4yUJzFPoogFAw2nDO8KBj4u0thysec0KB1SQHOSWDEWSxxU/dPyPkn1IILRKPLMefCxzjkA15foQFa0J3wxFmiVWceTyrKWcScQxWYj/M7Gg6HBO/+8Ibf5Yz682u3a/+Qfyq6zwzHh9K8GOeXruu6r/9hnfT26vq4+ey/xbk/uq9ehcxfFBVus/Q83zGAxvxrnIkpfcXW8L1gdYOU7WLr+Q7C3ybN++9zdrD/OCy4oJUDqLcZch4ytM/k0v0POxZFrdUPYJ9Zch7aBolxJT+M5Izj/sJXyhKhZPjTCer7IMKH8pwzYozynHEar/BxWmxlcafKre7ZmVED54uzUZ7zNTkJQQ+cL86t8pw/sf47UI+Mf5UzJhbTf/8s546IlRgV3vPNucJ6fsEFOon6R6P45jyuwPlMCHc0/uabM2FVCkfQpJsYvd2cb87ELwunP2Wi+hwtqBbkXCq/PYK+WTHfkwgUcuOTmGgRXbGgFLTPJLlEznIyZ/xiMmf8XXCM0V8Xz33K7UjWAc1HY98xnnTfKI2eHktK5HXwuTkT7kFY1ziecMdJ/ab5UnlA7TMIE5VY5pM5E6au3x47smw6hThj7Ssi9ygrsjN+7RMdR/sVvQlpmV4nrSvxt1Ln8dysaDeZs3witcHPfN6+adHcnMm8z3A4P80PiEybx3JDEkLt+ak9JBVvqQqOM0zeHZbBmchXiPetNzdrmZuz+UN2LfWl6EigvKck9cmXhpkFZBitlC1xGZzHtIzcQtLcnMnNSFDHAGf6lbJXjo1Ttj6mc5bn1C8Lck7PImVzztyel4zBT0rDUgrn2EQX5BxdHGGPEsQZeFOq8g+OKj2UwNpTG/drShPq/aPo74pyltuxfj1l+DBXEc7SOSaNUmZhMR0DG6GYMvMMVzsobXfuKSMPUZO4iNQVHpzDVynO7eDJMCh3m+solSH66SojJN1+TfQ7lF5ab5GuJCRVvj/Q7L4ePLs8DIbr4dTDewrk69sD79GuOvbjZ36OU/SFzXwPXp1To7KDJ+84FT97C3r1G3Bnpr+d/HQ6vZ9u+9Dkxw92njQaV7+rx6uHHpOTE+bxs/e6vuO6G3eirqwcIPYzY3R112vX/mzdhUJJfBV6oAw+bdfv0u1NHPI1hWws6Gp39V997TVHbBs0aNCgQYMGDRo0aNCgQYMG5fA/PwEa0EbM8vYAAAAASUVORK5CYII=;" parent="1" vertex="1">
          <mxGeometry x="220" y="230" width="140.87" height="120" as="geometry" />
        </mxCell>
        <mxCell id="6fFxtqcf5MelauamtKhC-8" value="" style="shape=image;verticalLabelPosition=bottom;labelBackgroundColor=default;verticalAlign=top;aspect=fixed;imageAspect=0;image=data:image/png,iVBORw0KGgoAAAANSUhEUgAAAO4AAADTCAMAAACx1N9jAAAAyVBMVEX///9BSVzzb2s8RVlnbn0wOlDOz9XyamUyOlHh3N/zZ2T4uroyPVLi4+XzbWl6gIs1R1urXmY4QVbyY1+IjZdiaHf29vdxdoPWaWjq6+1BSlv0e3f0gH76ysn97exGTmGLj5qusbhZYHD2lpP729rzdHDn6OrW2Nu/wceipq6ZnKVOVmj74+L2o6D97Oz50dD4tLP1jYu3usEfNk/w9vehUlv4rq71kY72np37xMHduLjg0dOmqrHDxsyLl6HenJ3WX2DWaWkeKkTLaVEFAAAOXElEQVR4nO1dfX+iuBYWI+KlEXaj4sV2RKnWF9pp6+620912Zne//4e6kBMQEDAgoca5zx87v22h5CE57yeh1WoWdnc+7LiOojheZ/j+YTf8+EbRnTkqJmiiUCBEej006372qMTA3iKVKGkgopLv/c8eW+24G/YIOiALIL3xZRG2Zr3DiY3PsWpekBR/KAmyiFAkJpuQ+WePsiZYQzVGCyOnM9xuNtvZ2EE49hrU8UVM8J2L91PobbsxUnZ365GIMXFWnzfKurBSUETWzOCzGqKQMMLr5sdXL7qhiCIyu8u+xLdQIWEsuQB3IyKdAltzZ4brXd01N7b6sUKITe178YU7dqGCP5oZmQjYHiUxId5RJdR32TpA8uqrMVAgLoeJsdjFyLXED0wINhjmdsRFIORLhqLHJQarcLo43QerQ2QW3w4VXORwu/+2C3d4Mi7nHS49VytQz3gjblSiYMFU4W2Zm97hFTnyec9zXEXPdiq8o3OANUJV1E4X08yOdNLb7dHJ7ZS9z0RS+pJDalR6pW3KCl7TWMSYxMF2JhU9JGa+cqKnM0WXJjDwkcAgC3NVwtU8o2uZcHoY8TVgIwk9SbokORXVR8c1Y+9lTG/l87PPBLZDp4jLfM57CBFvz3dLFwaSydPog+hypJ6smZqKIz5AeGUKe9fUpVKPi+5qxNI2pBOu3jv6EyyTrnonXK6vvd3n1okZ/tAJfkZkChOo/B2zundbJ15cCJUxxBZ8cn8moHaoULtaXVNJlY1YYADeNpk1M9JaQF3IfDtkd4cejpZxOstMjZhUhjefrtXvbjtOvPiJvdWaFZEIVeWXQNey+6vufNZxFZ9qrPZH8NZf8u+MLwpK+RLTtbemaY47I9f1FBI0KiRL2kQdgrHa9oBuUBWTl67tYt9lQhRJvaRMFITJLLLMrCiKPFtiulus5AARdTSP22WWZfbVs7x0x5ntGIhgdbRJuVzWCHzlsbx0rTRdFDBV3dkuw9+yPaBrSUpXUbw9S+Lz7KlOZzbv5jkfkKZSPJqck5Eum1tvbM6277uPfrFTyejCf2Wky+bWPH5DADO+8mVyIlkF4RS6MqUzxsk2qip0FSJN7nUeuoSkCt3Qne5J0pZiQYuCorobtzxd/yb2tiSpnOxguEF4A1nFMnSD+sEaVoUkuWY67AnNy1Wj21r3yqyKzwWoZajyVKTL7pOiKYXlmGlqrSrdDV9q7xwAVQ9IxFSly2rhMtC1YhWEqnShkuDIsJghkwiCV5EuE385HCtW/Zu1KtON/YXzxwrsLjbvqtG9M+EPyFIm6rBITvWc8l6V46ns9tJ9HZ+EVWzvQeUQQZrJ9c2mOjmV7kSt0OjwWdiq6DS6SJWpJNbaoX3Iy9s11NnTJUiO8CCCPVQw2xnF6fuyFAgiBCtDGfypJKyPzRA6BQkfXcgzj4abDynciwxAe5XKtWe1zLVnij7a+8/HwDpuZN7ryZxfHuEtcen5ArxfnhUKa1kSPzkPXcxriqCchGUW3ci6HJ/erlrCZp0v3vl69MOdC5LklnPBks54VnzZDN6KJKnlAkDaSVEL543VHaSfXB8jtjmowAtmW47QqLlRCQPbC1Uwv2wBIIk3d8bw3mN8h5mSGZ1EUKWV/xwxDJt4vYwG57XHQkUsU72+ECaB7AbCnXVihq11J0wEECkqQlywor31CHvDdd+2aNfgOtYIik3pbVAMw1imAmPHHY1cD8cOCUEXs5Ip+sks40HToNRx3yFSdA/wf7oyg9F1MUFKLAeNCHYvly5e9zdjRVXhACdVVcabPuzBuUi6arC/1V7tNtvZbLvZrQLbA7ukLpduCpdId7U9Rnd7EeFBK9gxtHXZGVxZmwJBdhWC3G1u6680sD+GXuxUucNshR32PAfVEm8o8zmZd7uxgxPdoOSgRN1J/h47451c+9AZ+u8jBR/sL0nnrGbpvRkIYWX0LpfislZbF2GUpAH/JnMa817yt+z/sC/IsqguKymusEjVydBhfbAxHqyrATnDSeo8VBDks1ddNhXXSXLkPS9Quh+MmxJpI5tNqm+ffPXtpU9FpYJ8xqrLno8QTq/L/Y6hDTM5bng9O28tPMCovxmpOBUXYpTcXHU+WJkoPVgVj+ODNSm9SZiUGsL5NvGsjT0fq+oB46zjJT8Z/XHS5PjiisxkYirakQFNNWxXJ3KTf8ham+mDjQk+txN+vycEFhHVyTpm2g7VczesgWW3tQbHVscFeULwd/EcuNH3YuYT4Z67yVl+jCPClsUWfl5tcLVxE4KMvbOZ4N1e3HzV1JkXuEXhCh6N4us6G3fzTowxOpetCduoJ5Co4/URW2myzTZ8W9+s9Xgvx+fRWfb9t19CbH4/fvnolxg4amC/b6Krf/scAV68Xe3x449fQzzFf56HH7/G8IPjhren6PI/4te/LRoh+6LpcWgGQ9tI/iIPRgxcd2j+n866fqC/CCc7XepG+0xg6MupWLZW+2zIBtCWYqOIW+2zGSah3Ypke6/DU4wzAON7L5DuE6VraOcAePP6k0C6zwadWpFvlBv3dIKNZ4GPuDGEyws/qB4xbgQ+gc6u9irwCSXwqomeXfEvtATEL7UHSvda4BNK4JrSfRD4hBdK1xD4hBKgqkoT6UheUe0/EPiEEhhQQ3Ql8AlfgK5gT5UPU6D7ReAjHoHuedhdoCsyDFxowh/BjQV99ZrIsdxTT1V/FPgIbsBKE+rhfQU/9a2ev2Y9Pp4Qv72B0/y1nrFkYrqsURveLweDZfW1eEUFS2zAS+lq9UQhS3+8xrLy7eADVL+fB9ft2jyZUzXrtwY8vBr9VHBZqofnTfjvNUYhEDu3T7tfcHRW4woanJhrggjhWx1DyQXoh+pTsgeYzRNsGqSqxKaaQeD0Gv4SfXFtrbrZ1IVHCFGMUIOxo2vxBLGwxEcIUYxQNiRaPLykNDDEM6FJu395KGuQvg4a8GchRhiUHNuDrmmpeYBlwkb7Jfh9SWO+GAiPEPxp0Mq/06/P+qH/Aypeg2WyDBa2/lxKjh9PNNtc+EozJqUk5nEJhZakBNDQijkJsLDb2rLMW6TLwzBERgj+yGhJrIz5eNKgvGFocf0GksfMiBVdUsIZpwGR0RacWIF1xz2s6a3OqjmDxD0QvYUO8xNMr/+DW+7hP2VISP0ol+1cXLOKoZEykK/JlOZVWDTWrnl1TzM54FIxwlVUp0vHtXqqvrNYhu/F4HQcmsnwP/PXoaxv4Zzpz6k1yvJMMWbT57CWqn/jcmJKDOQE8L/U+5twwgYHju0T2LOEFXmJFvQNj3Vppjr3wJtD+BK2NRjtQ/tykxX8xe7gMHRL4SWTAGxejl73oofK9ubQNIK/exC8fb2Jbjoe6IA4iCxmB3jjKpvsJXHwkCGJLPg7nMOHAbPAB9J+AHCZa8qJ5uKRStiRGOEx0rNa5ngg+NMz/sibFunyYheLemKG8Iw3ixEKlclib0Wzr6PGu52pAO73lrrQAt83ESHwhUS3ocq5zTYpU5C7bPm0wl4mo1DrNhIQ+W8VnObCRXTDBPA6Z8kngr8DTK/Z7YXWDiKEtujiHE+M8C3UUzkeIcy+nj31i2XomxRm3VjJRHTp1YIYodDTm+41VeZ19I3lTN7VXlcVxnZXeoblFoAlR4tAZIfaWR4htN5lR1W3uX5nCk2UTALwpXdfwpAuQzkng784IrXcPvQ7U2iiZBLghi95/xgGQ4aR9iaeQXQP7/miRfcctaevjUQIYaR6PEbYe4SDlGMLwd/hC3uIgvwMvzMN8LrF9+9903JdhPSVg1AOb+JyuMguH0xvIr+TpxAClVfREUKoIzSeS98i76odE9SnTL/s0Yi8KS4/WBPeVAUo01p171skSDnGMlWZwR/LVhm+/eHzHMQ3VQFKtVZZr6E8DkKtMtUyVPtzdNkrXz2mgaYqQMnWqqdIgG/j9ycHehuJLW/8et9EySRA2bLJIsxRsAXxoB2sDpZW9y/k/6v0LQqPECqUTUIXaxArkCT9A0b3eEi/xyMEROLb96blyyYvwVRoYKrhbaVUapDEy0jgFYCVTMQ3Z1qlyyb+4AxdZ7HaW1bwd7/U9QPnqxAsQmjgLAKIEcrlxKzHkB8Efwd2rGz/XFMRwqlN4u16fN3m2uZPymezltmT3YPmNkWcFItc1dQQ/ZwTZtSPkyJNGCaXx12IJpqqAKdsv7CMmio74rddhDhl+wUT3dNz/01FCFHZpJLJW9S0dcNqpmQSgMUI1XpAbnTD0E9PuTTSVAXgKZvkYvq6bOfUFsqggV0m0aOAbtU3O63Dz22kqQpQobWqdjTSVAVgIVETaiIXb00FRC3m9gqvmxcC0nviSyYBmumKKAR3h0gNaM6By8Vtg/uIn4VvAj8+hIZKJgHOYEd6UyWTAA+1bb+oDKqoGlIfvK1VAtFMUxWAr7VKKAaBMazF9Ft2/wj+/Pu/Pv7+6z+fhr/+/icYwZ/HRmof8c77c9N1CC4GgaPQep8HlZ3GdmygjmvO8w8g/BiTwyOGpQZCmIwzTjj30R3hi6IaAqmjw7Mordllkg2A8CwlxPYofQz2JWGCR4mjVe+86PBJRLB6IYh9UYR4saNJ2cf6gml3zM26eyFYb0wnFNH4JwbZgasKdndnf753OVg7l0np/qt7WzgXGpHNhZENYG3g6OMJZkfE9nvAVpH766i56CrAVwWPA75IjiZncwBy3eiD74ToNyjYaf2Sf/m2EPAVYKUXHJINJyZL/lnjI4CPPNND69mHJy5QS+1hAceeP9GULt/Hy+UFfHa91229wzxfrJ4C9IHle8ukWsv77PGIBv3sETJb7gT+vXDQWZ24LednEN1QeJ0W6Cyvc+Fg3/BqhXHfhUNJ0v1J0LrYlE0molj3Z4Af867+/Wn4on/9GKFv/iR8kdlv/Q8WXU8XGptwJQAAAABJRU5ErkJggg==;" parent="1" vertex="1">
          <mxGeometry y="230" width="135.36" height="120" as="geometry" />
        </mxCell>
        <mxCell id="6fFxtqcf5MelauamtKhC-11" value="" style="html=1;shadow=0;dashed=0;align=center;verticalAlign=middle;shape=mxgraph.arrows2.stylisedArrow;dy=0.6;dx=40;notch=0;feather=0.4;rounded=0;strokeWidth=1;fontSize=27;strokeColor=none;fillColor=#fff2cc;" parent="1" vertex="1">
          <mxGeometry x="135.36" y="260" width="100" height="60" as="geometry" />
        </mxCell>
        <mxCell id="6fFxtqcf5MelauamtKhC-12" value="" style="shape=image;verticalLabelPosition=bottom;labelBackgroundColor=default;verticalAlign=top;aspect=fixed;imageAspect=0;image=data:image/png,iVBORw0KGgoAAAANSUhEUgAAASAAAACvCAMAAABqzPMLAAABg1BMVEX///8AAAD617f0NC8aTmMvLy/617j39/cYT2NFRUXX19f7+/tra2udnZ1LS0vLy8s5OTlRUVHg4OCCgoIaGhq2trZycnLp6enDw8P2NC5kZGSSkpL+5c3y8vKrq6tqamr/6cn/OjeLi4sLAADf29pZWVmlpaX/5cUADQ9nscZOTk68vLyFhYUmJiYzMzOysrL/9d8dFBQoc40UAAAdHR0VDA7//+3r28FjICAAAAjHvqjWPDhBFxj8Qj7/48DtPjkaMTkJGBoeXHEdO0dtZV3UzsDr4MyCfXRzcWojHR+fnJFFPjj77+Di1rzRy73h28zBr5rTwKuhl4ZWT0Y8MyyNfW1oXlKuoY/Nv6h6MjLmzbSsNjOEe2ucNTPGtJ4iHhrVOjY/FhaDLCrEPTokAABUGxqyODWFIiEZIysyEBE0an5PGxsxKh5nW1YlAADtT0vNUE1CJCOfIB8AICOPNzdaIiI0AABJAAAvP0VfkJwzUltVeYZ1rb5LaHJxpbV8yeAAGiVvP+QfAAAVvElEQVR4nO1di1/aSLvmlSISrkIkAkaDgMRalBRTUCuIuK2sa9dLvbTVbau9UHv29Hxn93zftnvp/ulnZnKbkLReWIu/wPOrrR2HZOaZ9z6T6HL10Ydj4A3PpWKBQDyWGmH83R7MjQOTigANXzDa7SHdIHBTIchIUgak3bW1td0CQEYGSIa7Pa4bAj4mg9xkM7D+XVHBg8WHLOZowtvtsd0A8CkAOeCRYf1BcUxHsfhoXYZMk+n28LqO8Sb45viwvPGdRk9+kCBffPAQZBjt9gC7C8YHkVF/NgDfK/QMDg5QEDafL8BMt8fYTUwCjPuZGEg/Fi3sEJQ3elmG/DnwZfngBOt7gKWHMDJI/qgYHBgsF2ToWTs0DEk+Gp8Y9v2AxaddeJA84bZN5OD4bo+0O0ghfrKBiYBH4cckOwZLwiJkct0ealfAyx4vH08G5EeK/AwSoWknaKx473voTUM9DikUIAKsF1V+EBk/PMjTYjQ4MPbjhrwhSc1uD7YLmClIAJHYXG6jOJYnbBR/XEN05WkpGnyA0zKp2YOebBwkCIW9XDgOD4iBHiwukiR1y6Ri2ztPnx48X5Dj3R7vt0YU8RN0hWO5XA4eVIkyPQLY2cxv0k4efVUHB6rCOhR6LSmLZWDOO5mbCASSUCZcFBekzXy7n9ci6t1ei4W8zUzcH0sGEHIKQfktOKwqlFid/cAhTHV7yN8WDEB2ivATDz3OY2HJH60JlkhahwA9ZoTmIMMTfgLx2TVC0MDTpxo19N/qt8Lu7W4P+dtiCiLhnEIQu1MdpFhB1npPNUVVlaOxfSG/1+ytInUyk5tTJQi2TTqFosXHSrBY3dkmLfmiZ7O6A72Uj3lzIOeCE4SgALbRhk4Njo0VHx5UiQDtHOGgETH28Eg46CWC/CGoS7eDE/E4JiiTp/jBBI39mCmrrktQWjahvAWBbg/728GXkZ+IsyO54eEkokimCEJf1XxeOGLLius6QsqWLz/dLuyjKLtn/FgSxGcfxCbeBcvMxuO6ihGCqlvb5fwiZgbrGBwOVPdw/nH0CFiY7PbIvw1iIB4vH9cl8D18KGeasfmf6CpHHkB+jnIOYoXKz58LA5uPM7s/CYfwLxHGuz32b4E5EE+WayKbeXTv3r0fNjLDw0d0glHd2njOFnYE4vGrP8G+MCDkBWyPTiv1Xsg3oiBWaulnIjwqHqxvFb8DT3IjT6kYskHlcp7ID5Ir4Qj2BPLdIryovRQ9zk9ZfeK7D+n0ycL6ve8zAOv3HsuyRBkhc8WeZKkHpEC0BbXEkux8Qx0E8TSdTldgsbj1CB7C4h54dvLm5MtUdy17YBFL2AHU3Ilj0emFMw7qJ8vptLsC22PC0V5xb18o5801DpMgDeJNDdiqIl/2ChFUey0Wuj2F60UAXtUQP+kTWByrHm0NlHcFu0K94s+Uf6ooAkKGev+9251InMoQ7PYcrhMMioDS6YQ78QweFqs7WwODT+2kRwHZSEQkjcGGMCg8Pkm7E273iejoPbIJ8T0WIHdiaWG2OLB9YFf50aRoW91JFLZwUJSHY8Qr+qAEqW7P4vqAXPwbzI/bvXwfFgcV5bLjCLXlPQKOq4XtXdgvkzAIE+R2v62XnFv3uAMva2k8S6RjoqxoUP4LQlSGw3y+vLUBjxeFgXx+B5aUD75wcDztz4jHigAl3LX74oaANGdzt90KqYQJiJoCwMZWvips7gu7/6kpBLkroq/bE7kujID8gfCDJ3oqiws7izsAD6xObFuoVgee7u3t/FQWED1rcFgW3+ofFB2bcCTFyrJGEJroKxGn6d8VzRXosbHB6trG3tb20zJCfnvnZ5S5CgfYBCmovXSqmfaymoYpDC2dlFh5vag4K3zkjtA0NpbPC6TCkZFlKMuwAEeCsFta0ghCnt6h9fswSEsGP8QQPRF3NYI0AzSW39sV8ptHjxcwSZvPYQMZ6UOouBO66InAdXsu14IUvF82E5R4I2aKKB7EXn1HUCjKDwr7B9hvbW5vHew83X6K3JywD290AUq8kBx6GCYJJ8tuExIvZHiknLyr7m1VNSMtwBEyzgSDZOfnEN7XdILctdfOLC3yHpRmmPlxuysLD1UdK6uVV+XQHWzs7WwhHGwNYo8vnhoClEifiMPdnsx1gMOFDrMEYXvi+QEfDkIB485jQWOoeihrD2xsDwyiILFCix4KMqVuT+Y6EAa51k6Qe7mC0nolpBY21tW9eXy0dWtvf39t57BcxfIkGhZItdJOTFjn4N2yMc+EYqUTSxAqalkp8udGtFgVBKXwKjyX6k+oT7pxYdGJoWIQ7i+bBIEQdErMtHLet4wZ0g93qGUiYX9BksQTmtvaK0fWFVPw2kQQEaLTd6wUwUcUcZxY3YQ1wcTOgHDoycifWpJYqVEEvXOkn08hU5swiY97qSKykgSTerC4CfKiQE5RkYb85jrI82d377ak+vulhBorJlCyMdft2VwDJtt8UaL2VhJLrdWGBA9/KCpnpIXiOuz+JKA0H9ugwzVYaEorQ3cJQy+XEhpB93uAoETt2bu63FpFk1+RgH34aEwQhM39x7uPZZDWdrYO9vYlgGaTrddLDdKJLZ06W4JoFUu4T1+LCj1EPKQkCnn+a78J0oLINiUlCpJ/XpPr794+eyljGWpI7CuSsCYwQSPdns01IIiMtGqbE7VjmS19uqtiiIUZfzQ8E4fjD0vH98W6/PPWzsGh8MizcFJbTp9CYwjZoaFSveJoIz2luXkkPvfrUutMYedsCGEFAlFEYamWTqeXT5+I4uOdw8MdeHmaTmONWhkaQsLWYJWMLLFUAic+7DsDkpJxYt9F7ArCKqbnFvr6GzaCERQHoB7p9GkFadh/w7sPy2nUsFxp4T53VzMVxbqjSNqJD4xnQXyRIHFwXZJXdXpuIWCWhlogalY8vfw///q1dgxP/hdHP+mTXwiLDfFYkcA3IjhxY4OXSEqVflKXVhTTQ0Tn1i2dol80K758WkGJbU3+9QNmLPH2lyHcoyWrGxvH4my3J3Md8PvEE0zQSb2lmZ4hWoKGhhp6qF1b+r8nteOFNwkcHGIJwl1a75VoerkiOvO4YnyholQR5TOiXbd04O/xn5daWSyR/hX+DVA5fVFbXq5VGkTYCL9uUrV35v48SudrSCRqktRQFMwgSP2nrlfm32SGAwzjg4XSv//zWlbkS62aOTWZxxvP8inWmQrL0gTp/yJvf6wGOseQ83JRnpsL/fbx46dMg4QC7xQTnngmFpxYDkLwICUhOiatYh2jJWiIMNR4WcNufKkCHhjN+lOMP/D75+nPvxOG6ickW00gE5Ts9kyuCSlARgZlCu/YlTaCiBFCQFpUWzouNf74vNDkvIURV/L36enpP1isYQvK6QXnbmqQSAibkeW3dWSmz+wIWnl//FqCPz9PT39Utk9zHxFBf2IBWsEnzLB8PRMzDtUwfIATRzooEi4hHaP5aTWIniEREusZpFUIv5HdwdBf09N/LWDu6hVVw16Kzj3IOQco1sPZOPZjWhCEeWFXV7VgaOU3ws/0X5CKQnTjr+nPKw3iw94oBTMHn11wubwF8UQJhVmdIKJd7KoSV6N8Av4g/Ex//s3DpfjZP6Y//q34sBcJIkCvnbkppiII0hI5R1c6oxIxFAAhgpTvWiVFw7AVmnPxhenpFhGsulK2x3mYEwv2GvwSrukgMciskmRDyzNaZ3eJq0eSIpVaHxURavm83MrnTw09SsTa+d7RAoTfJkBmeiw2sJXWbRAi6JaqcA1WKq1g5z79O4SZT3+JSh726kMiXTs9rrAOtkAEPhEFg8iPtYgRUjkaWjlT6SLSMi+V2D//+DwtJoMfFQVDedjy6ck7UQSQZ51YCzLA4KP2KNhjVYJu6QQNaQQhilpyCX77+GfJE1nB/19tSb++FusAvpnxAni6PYfrRQrvtNfuo1CRVMGwUik2yIRGQZJKUlNiPzUQWpLEIuGJY/PsnXVkxZ6CTywtpSvi6t1VValW2AarEIS4WFlZaWHMNwnmWUkBhEbUJ6HC4NhTrgo4SXz54UT8pBKEGELzX2m0WO3Ii4yIYckhxaZUKiHhKczLTZx+RYNBFF37Zx1ZkaYQhnrlV+TGVpWKIrI3JbIT5ounxkcZjuMxOI6Zi2Uaq6srpYDfn/F5Xd6crCSpcYfWywyMAIuLZmckeF79tLq62hgOW89lRrOAS48lHw4ws/6kdsB+FJwdCrnIu5WkllaWxvtjZ3YVnmwUE3RWKuBaG7LPI8lcIBXF/yk585QrBcSQEggNqftiEZtOWa6JLPmQnOFcfvxyHKJ8fvxmHUdnGwpmAAVCt4x0ft6mxJPlPDjNILHz7Zjf5ed54si8Sec+zmIAZCpSHBqyOxqe5SINsqGI4p440sFUMpeLzfldXMyRhzvakMGRolKyxypml2Fl+RAhKDPpck36/NpmKo8IcuLWfBsKpTOtBIS/FmxkIssPE4JKARc/Oc8zTFYB75MdW3M14FEI0mzQ3zYP8GT5JM7EVmQfFw2Cl4tmFY7C4NRdDRqzpTPdBmEWJqxdslycECR5+PAwFApNAM/ECBed7QEnhjIymW3QyalNip7l7uBqawMlYjCbS96GOMNlRyehJwTIFUOx4nxjSM/owdolGw3+TSQoE+OwhR5WUrXCHSeefbEABTMZFE7rUmTjxqLZOUApLMrT1OSUZ0ZHw9GeoAeDSxWQFBFFw37eWuRB+oSsTkHOOTx5/zK8U01MEdn3+jtm+TGH/BXDTzp2o/ki8I8XQJYQSS3WWgVDBMlcdLwX8oqvYTRQIG+MtgZ/fJZZwFJkla0eA8+MTI3PWq00n81CNBudd3iF9YKwKRN6EUHZLBfqhcTifIxawz8/IohB4bTTtwovBh7m29/f5s9GIZzlJnvdSqsYttYwshyEOf6O42v0F8OU9Y0cUa4QjyMf1wPVnwuAA0tdmuN8OALoC5CCkKXsynNJiIV7Jvc6D8E2Y+znslyqp/OMNkShGZ/RhcjPczz+nSQ99rsQvophyOAN6EBqanw8mIolZ7EB6kuQgfCwDIQjA82+AJnAM+OpeO62zxcJ5QJ3guNh57/7t48++uijjz766KOP8+HlouHRmbnx4GT8vI2MaDAQn3L8QUUao2DG10PouNLJka+b/AJmLkNQTuvVQztm3Nzk7EUJGje63YSDQjO+kA0i1zC08AUJ8hndbsJJIWq9aFzHEzdTFyKIZ41ukRtQjw2H5q30zOauYzPPfzGCqPHckF3paLBAszMRvq69YN9FCDJs9A2y0v4QJT3Xd5uLEUTZqptztIpyw9f4xv2LEeRKXachvCIYg6Br3Me7IEGuGRIS+G7SjuvNIsjlj47M3Bz1wrhhBN089Ak6B32CzkGfoHNwHkHMeCwX8oVyE3dG7Iynl+OiDKMd1GBS8dxwLj5l6WkhyGsGdUGeXLCtJKTcZlTtxwTJbYL2QT8a8QT68URsnEHD4ny+znKDrxLkDXqAgs/YTx+NT+R8EU9BTZ+IXw4aqUKubYLtBPmBpQEMuWDIuKCarDLmVhIejRvRf8iyEv4UnRuwyfBUp6cAvkaQmmMWAvGI2sWjrUYKTEAEMWx7y1cJMoNpv6D6ENWcuRURFJ1tb6GhJ+ARX0Tv09ljnl8miFNnFfPThKhHfWao0gSho20qbcmCRcWYqaTexMZG/e0XVF9ZGg6ZWkcsBUrzQdmANkicU3JTrGnI/zRBUbVVXUs9kdTWzEuvOUMVNFSYzt3ZGWk1yfFpBSievob+TlcvXZWZGbHchqXuEmsjzRuwmdc/RRCntarWxEgkddGghn4bjXQyHGWmKD2jK292BBE+TFkFb0OQqaqNHyyLodvMUYbGkA8traSecZy8PoI0Vc9pDXq3nKUPRkyZOWe00EVBG4KIhLadEjIop98KTFVBIKkUZHiDIaNypN3kDvVZLFSdbQF8gaBJrVG3cMYcdbWPGZ/V19GYY4Fy3laCMJO+9v2dqN6NJojSZb3gQImVVsPS18ZUro10WluyJ8gQBJ2NuN6kr4hBkLFolH+ipm8hKNq20karlaCgXasRUmgjNOwT7R8Y87UuD3uCjKnrYqDLlGF+jV6UJTGsEDXOdoIwEzbe9zyCqIjGcG/avQ0bX6ANmw86+8WJtgRR5XO9jRJ0rcmWIGPkXyYI39Ru9+Q8gqioJ6A3avem3Z1vTl9YZqqz6pstQZSG622UE9Z0x5ag4fMJIpe3e1XQJQgyNF67N725hJAM/jNPCdsSZKgTxCeSyRwG5bK0mV+RoJn22+noiCAqSFAxe+cfqL3ZEpSz3MsEzSxejaBxm5+r6IggqsnAcMe7WLYEUSlqxIpCJxJETde6i9IZQVQMRuHyTp5JxWOUDbMjyLDRsstvhdbtKgRRsZPNY1IdEeSyJiIYl3RivDoBLbI7hyCbF0sYuApBJrTLf4cEWTNmgpzrMtC9sBqG2BJEGeSvXetKBI0YHaDQ5mc6JcjF2K7EZQpCVLCgDO48I/21015XIShMsWAxEB0ThFzkbStBl9nop5RH4ZUiyMiLKTf/tdMwVyHIb4qo2mbXCUF+XrWr/HhOBjMufqaPjhWUTJoKrwyLcMH96KsGilQVjDUV8TshaNRIW138aMxU37y4r6fkRRUYyvIbRzsoh2n3HsROCaL9sekXIXRCUNi8mP4ZqmZ0cYJo/Vfkzkix6HdpUUbIsk+e1G3VVQkyeRvagnZCEF578+kdo6h7cYK8lqWLtN+IgFK89pxpyvCbVybIFKpTStYJQVFoL2z4dVN0iYxDv6ynvQJoNvWULzbnTHjxtTrg1QmilYyS3E4IIpc0l1C0jP8ybzrXNEozjsYczSzTM6DropP04M8hiBJsS8GMrk0YszIIoquC5xA0So/YZBA0gi5TlFYnPqtqq6FK7Xsj9P7KsObrR/FEh/XozlAUaghGHkctp+FTNNboiE73wjaFVJd94ZK6t2qaVQdNM6QN5RL8aEGIZavCSrLpBDh7OzZ5J0emafBDGSpWlxbKDcj6YA0ZgJA6c9qfyuqnvRRrIZ01uqdtYqosn1brNUr0Gt2XTOhJEHib8fp5xhBTu6IbYzrgCeb7+6dS5pD1doonebCpMTIZdnFB80lyyKXI3E09C7GR0bbPwjDuN5Uyl14iuDEajJkaC5OYI+1/83NkDXhNiy99XE2RoQI16qR9pOlt2w5GCGmrYa1OYSM2aWmMWfdC1SX3mtsiNjWoMOVU6EbrLmVSIWhEXbRQMqktX/spgYuAMy9V4MsiyJsPLySNxfCynjaw+Dfyzrc1FlKusLWncplxU+dcvGDXz/phNNo5y23ihKAQkuGYKc2YuGK9jJ+JDUcKBY8vN3neE+zRmVQgh0+TpEZv+Au1GEYRFmYqTg7sBIKdPZ3v9/Idfb6PPvroo48++uijjz4civ8HkBHoCCvoe34AAAAASUVORK5CYII=;" parent="1" vertex="1">
          <mxGeometry x="450" y="238.35" width="183.74" height="111.65" as="geometry" />
        </mxCell>
      </root>
    </mxGraphModel>
  </diagram>
</mxfile>
